<svg width="25" height="26" viewBox="0 0 25 26" fill="none" xmlns="http://www.w3.org/2000/svg">
<path d="M22.5532 5.05549C22.5388 5.04588 22.5229 5.03468 22.5069 5.02348L16.0794 0.584873C14.8473 -0.147962 13.604 -0.35277 11.3272 0.924104L0.773041 6.83958V6.85559C2.11554 6.18193 8.73183 2.86502 10.6359 1.92575C13.3576 0.584875 16.3386 -0.152719 16.3386 4.87151V17.4721C16.3386 20.5601 16.0746 23.9508 10.6887 24.3812C7.9478 24.6005 3.31718 24.6058 0.773041 24.7179L0.660201 16.2013L0 25.4949H17.9643C20.4252 25.4949 24.0989 23.9107 24.0989 18.9378V8.83487C24.0989 7.18039 23.9421 6.03795 22.5532 5.05549Z" fill="#464B4E"/>
</svg>
