<svg width="40" height="46" viewBox="0 0 40 46" fill="none" xmlns="http://www.w3.org/2000/svg">
<path d="M14.8114 38.0468C14.1867 37.216 13.4916 36.3339 12.7432 35.3935C10.0365 32.0069 7.72967 29.3536 7.47049 25.9773C7.12552 21.5731 11.2843 19.2062 11.2843 19.2062C10.0004 25.7233 12.0567 27.764 13.8039 29.9834C14.7445 31.1781 15.7074 32.3177 16.5965 33.3972C14.6243 36.4883 14.8269 37.7997 14.8114 38.0468ZM39.1395 21.1612L31.0261 7.09892C30.7565 6.6372 30.3943 6.24416 29.967 5.95753C28.9853 1.76614 24.3493 0.082386 24.1056 0C24.3116 0.116713 29.967 5.95755 26.4588 11.026C25.3637 12.6068 24.1194 14.3197 22.6364 16.1803C19.928 19.5649 17.8546 22.2665 17.6949 24.3313C17.4649 27.22 19.6362 28.7734 19.8336 28.9141C19.5109 28.7734 14.003 26.2811 14.8612 20.5965C15.2714 17.9018 18.5377 14.6338 21.5791 10.7703C22.7257 9.31305 24.0009 7.93136 24.3802 5.31388H11.6911C10.4158 5.31388 9.23495 5.99185 8.59474 7.09892L0.481443 21.1612C-0.160481 22.2631 -0.160481 23.6276 0.481443 24.733L8.59474 38.7935C9.23495 39.8988 10.4158 40.5803 11.6911 40.5803H16.8831C16.6445 39.6979 16.5656 38.6973 16.7338 37.5782C17.1423 34.8768 20.4103 31.6123 23.4465 27.747C25.1921 25.5242 27.2466 23.4851 25.9644 16.9681C25.9644 16.9681 30.1197 19.3367 29.7801 23.7443C29.5138 27.1136 27.2123 29.7688 24.5038 33.1534C22.1078 36.1605 20.182 38.6201 19.6911 40.5803C19.0251 43.2199 21.5053 45.7518 21.7027 45.8906H21.7061L21.7078 45.8941H21.7147C21.6426 45.7724 20.0618 43.0193 21.392 40.5803H27.9245C29.2049 40.5803 30.3825 39.8988 31.0261 38.7935L39.1395 24.733C39.7743 23.6276 39.7743 22.2631 39.1395 21.1612Z" fill="#464B4E"/>
</svg>
